G75*
%MOIN*%
%OFA0B0*%
%FSLAX25Y25*%
%IPPOS*%
%LPD*%
%AMOC8*
5,1,8,0,0,1.08239X$1,22.5*
%
%ADD10R,0.18910X0.04737*%
%ADD11R,0.14186X0.07099*%
%ADD12R,0.06300X0.02170*%
%ADD13R,0.05800X0.03000*%
%ADD14R,0.03000X0.05800*%
%ADD15R,0.08674X0.04737*%
%ADD16R,0.04737X0.08674*%
%ADD17R,0.07296X0.13398*%
%ADD18R,0.04816X0.08280*%
%ADD19R,0.07099X0.12611*%
%ADD20R,0.19800X0.17300*%
%ADD21R,0.13398X0.07296*%
D10*
X0172233Y0036230D03*
X0172233Y0044104D03*
X0172233Y0088730D03*
X0172233Y0096604D03*
X0172233Y0126230D03*
X0172233Y0134104D03*
D11*
X0192706Y0143552D03*
X0192706Y0116781D03*
X0192706Y0106052D03*
X0192706Y0079281D03*
X0192706Y0053552D03*
X0192706Y0026781D03*
D12*
X0136194Y0096092D03*
X0136194Y0098651D03*
X0136194Y0101210D03*
X0136194Y0103769D03*
X0136194Y0106328D03*
X0136194Y0108887D03*
X0136194Y0111446D03*
X0136194Y0114005D03*
X0136194Y0116564D03*
X0136194Y0119123D03*
X0136194Y0121682D03*
X0136194Y0124241D03*
X0107406Y0124241D03*
X0107406Y0121682D03*
X0107406Y0119123D03*
X0107406Y0116564D03*
X0107406Y0114005D03*
X0107406Y0111446D03*
X0107406Y0108887D03*
X0107406Y0106328D03*
X0107406Y0103769D03*
X0107406Y0101210D03*
X0107406Y0098651D03*
X0107406Y0096092D03*
D13*
G36*
X0080556Y0106622D02*
X0084656Y0102522D01*
X0082534Y0100400D01*
X0078434Y0104500D01*
X0080556Y0106622D01*
G37*
G36*
X0078329Y0104395D02*
X0082429Y0100295D01*
X0080307Y0098173D01*
X0076207Y0102273D01*
X0078329Y0104395D01*
G37*
G36*
X0076102Y0102168D02*
X0080202Y0098068D01*
X0078080Y0095946D01*
X0073980Y0100046D01*
X0076102Y0102168D01*
G37*
G36*
X0073875Y0099941D02*
X0077975Y0095841D01*
X0075853Y0093719D01*
X0071753Y0097819D01*
X0073875Y0099941D01*
G37*
G36*
X0071648Y0097714D02*
X0075748Y0093614D01*
X0073626Y0091492D01*
X0069526Y0095592D01*
X0071648Y0097714D01*
G37*
G36*
X0069420Y0095487D02*
X0073520Y0091387D01*
X0071398Y0089265D01*
X0067298Y0093365D01*
X0069420Y0095487D01*
G37*
G36*
X0067193Y0093260D02*
X0071293Y0089160D01*
X0069171Y0087038D01*
X0065071Y0091138D01*
X0067193Y0093260D01*
G37*
G36*
X0064966Y0091033D02*
X0069066Y0086933D01*
X0066944Y0084811D01*
X0062844Y0088911D01*
X0064966Y0091033D01*
G37*
G36*
X0041066Y0114933D02*
X0045166Y0110833D01*
X0043044Y0108711D01*
X0038944Y0112811D01*
X0041066Y0114933D01*
G37*
G36*
X0043293Y0117160D02*
X0047393Y0113060D01*
X0045271Y0110938D01*
X0041171Y0115038D01*
X0043293Y0117160D01*
G37*
G36*
X0045520Y0119387D02*
X0049620Y0115287D01*
X0047498Y0113165D01*
X0043398Y0117265D01*
X0045520Y0119387D01*
G37*
G36*
X0047747Y0121614D02*
X0051847Y0117514D01*
X0049725Y0115392D01*
X0045625Y0119492D01*
X0047747Y0121614D01*
G37*
G36*
X0049974Y0123841D02*
X0054074Y0119741D01*
X0051952Y0117619D01*
X0047852Y0121719D01*
X0049974Y0123841D01*
G37*
G36*
X0052202Y0126068D02*
X0056302Y0121968D01*
X0054180Y0119846D01*
X0050080Y0123946D01*
X0052202Y0126068D01*
G37*
G36*
X0054429Y0128296D02*
X0058529Y0124196D01*
X0056407Y0122074D01*
X0052307Y0126174D01*
X0054429Y0128296D01*
G37*
G36*
X0056656Y0130523D02*
X0060756Y0126423D01*
X0058634Y0124301D01*
X0054534Y0128401D01*
X0056656Y0130523D01*
G37*
D14*
G36*
X0066944Y0130523D02*
X0069066Y0128401D01*
X0064966Y0124301D01*
X0062844Y0126423D01*
X0066944Y0130523D01*
G37*
G36*
X0069171Y0128296D02*
X0071293Y0126174D01*
X0067193Y0122074D01*
X0065071Y0124196D01*
X0069171Y0128296D01*
G37*
G36*
X0071398Y0126068D02*
X0073520Y0123946D01*
X0069420Y0119846D01*
X0067298Y0121968D01*
X0071398Y0126068D01*
G37*
G36*
X0073626Y0123841D02*
X0075748Y0121719D01*
X0071648Y0117619D01*
X0069526Y0119741D01*
X0073626Y0123841D01*
G37*
G36*
X0075853Y0121614D02*
X0077975Y0119492D01*
X0073875Y0115392D01*
X0071753Y0117514D01*
X0075853Y0121614D01*
G37*
G36*
X0078080Y0119387D02*
X0080202Y0117265D01*
X0076102Y0113165D01*
X0073980Y0115287D01*
X0078080Y0119387D01*
G37*
G36*
X0080307Y0117160D02*
X0082429Y0115038D01*
X0078329Y0110938D01*
X0076207Y0113060D01*
X0080307Y0117160D01*
G37*
G36*
X0082534Y0114933D02*
X0084656Y0112811D01*
X0080556Y0108711D01*
X0078434Y0110833D01*
X0082534Y0114933D01*
G37*
G36*
X0056407Y0093260D02*
X0058529Y0091138D01*
X0054429Y0087038D01*
X0052307Y0089160D01*
X0056407Y0093260D01*
G37*
G36*
X0054180Y0095487D02*
X0056302Y0093365D01*
X0052202Y0089265D01*
X0050080Y0091387D01*
X0054180Y0095487D01*
G37*
G36*
X0051952Y0097714D02*
X0054074Y0095592D01*
X0049974Y0091492D01*
X0047852Y0093614D01*
X0051952Y0097714D01*
G37*
G36*
X0049725Y0099941D02*
X0051847Y0097819D01*
X0047747Y0093719D01*
X0045625Y0095841D01*
X0049725Y0099941D01*
G37*
G36*
X0047498Y0102168D02*
X0049620Y0100046D01*
X0045520Y0095946D01*
X0043398Y0098068D01*
X0047498Y0102168D01*
G37*
G36*
X0045271Y0104395D02*
X0047393Y0102273D01*
X0043293Y0098173D01*
X0041171Y0100295D01*
X0045271Y0104395D01*
G37*
G36*
X0043044Y0106622D02*
X0045166Y0104500D01*
X0041066Y0100400D01*
X0038944Y0102522D01*
X0043044Y0106622D01*
G37*
G36*
X0058634Y0091033D02*
X0060756Y0088911D01*
X0056656Y0084811D01*
X0054534Y0086933D01*
X0058634Y0091033D01*
G37*
D15*
X0025796Y0085167D03*
X0012804Y0095167D03*
X0025796Y0105167D03*
X0012804Y0115167D03*
X0025796Y0125167D03*
X0012804Y0075167D03*
X0025796Y0065167D03*
X0012804Y0055167D03*
D16*
X0046800Y0029163D03*
X0056800Y0038671D03*
X0066800Y0029163D03*
X0076800Y0038671D03*
X0086800Y0029163D03*
X0096800Y0038671D03*
X0106800Y0029163D03*
X0116800Y0038671D03*
X0106800Y0051663D03*
X0086800Y0051663D03*
X0066800Y0051663D03*
X0046800Y0051663D03*
X0056800Y0016171D03*
X0076800Y0016171D03*
X0096800Y0016171D03*
X0116800Y0016171D03*
D17*
X0086887Y0065167D03*
X0071713Y0065167D03*
X0134213Y0082667D03*
X0149387Y0082667D03*
X0159213Y0067667D03*
X0174387Y0067667D03*
D18*
X0031800Y0138946D03*
X0021800Y0138946D03*
X0011800Y0138946D03*
X0011800Y0161387D03*
X0021800Y0161387D03*
X0031800Y0161387D03*
D19*
X0130324Y0066072D03*
X0148276Y0066072D03*
D20*
X0139300Y0041915D03*
D21*
X0116800Y0060080D03*
X0099300Y0060080D03*
X0099300Y0075253D03*
X0116800Y0075253D03*
X0114300Y0132580D03*
X0114300Y0147753D03*
M02*
